# xmcd
#
# Track frame offsets:
#	150
#	24716
#	36659
#	39299
#	52903
#	69121
#	81761
#	95536
#	127743
#	131861
#	147217
#	168703
#	172168
#	173731
#	187437
#	202985
#
# Disc length: 3055 seconds
#
# Revision: 1
# Processed by: cddbd v1.4PL0 Copyright (c) Steve Scherf et al.
# Submitted via: EasyCDDAExtractor 5.0.6
#
DISCID=e50bed10
DTITLE=G.Love and Special Sauce - Front Porch Loungin'
DYEAR=1999
DGENRE=Rap
TTITLE0=Rappin' Blues
TTITLE1=Freak n' Bug
TTITLE2=BBQ
TTITLE3=Breakaway
TTITLE4=The Beat Goes On
TTITLE5=Hobo Blues
TTITLE6=Kick Drum (Remix)
TTITLE7=Lovin' 
TTITLE8=Em's Song
TTITLE9=Rise Up
TTITLE10=I Love You Too
TTITLE11=Birds
TTITLE12=Ternosky's
TTITLE13=Milk and Cereal
TTITLE14=Blackbird
TTITLE15=Gimme Some Lovin'
EXTD=
EXTT0=
EXTT1=
EXTT2=
EXTT3=
EXTT4=
EXTT5=
EXTT6=
EXTT7=
EXTT8=
EXTT9=
EXTT10=
EXTT11=
EXTT12=
EXTT13=
EXTT14=
EXTT15=
PLAYORDER=
